<mxfile host="65bd71144e" modified="2021-03-10T22:55:33.654Z" agent="5.0 (Windows NT 10.0; Win64; x64) AppleWebKit/537.36 (KHTML, like Gecko) Code/1.54.1 Chrome/87.0.4280.141 Electron/11.3.0 Safari/537.36" version="14.2.4" etag="IBz3kmOxMJVP02tmKkRD" type="embed">
    <diagram id="6CtzWgGAWYebODuF4p_2" name="PÃ¡gina-1">
        <mxGraphModel dx="965" dy="574" grid="1" gridSize="10" guides="1" tooltips="1" connect="1" arrows="1" fold="1" page="1" pageScale="1" pageWidth="827" pageHeight="1169" background="none" math="0" shadow="0">
            <root>
                <mxCell id="0"/>
                <mxCell id="1" parent="0"/>
                <mxCell id="18" value="" style="edgeStyle=orthogonalEdgeStyle;rounded=0;orthogonalLoop=1;jettySize=auto;html=1;" parent="1" source="2" target="5" edge="1">
                    <mxGeometry relative="1" as="geometry"/>
                </mxCell>
                <mxCell id="2" value="+ Name: Alejandro Rico&lt;br&gt;&lt;br&gt;+ Country: Mexico&lt;br&gt;&lt;br&gt;+ City: Chihuahua&lt;br&gt;&lt;br&gt;+ Adress: Felipe Orozco 901-A" style="rounded=0;whiteSpace=wrap;html=1;align=left;" parent="1" vertex="1">
                    <mxGeometry x="100" y="130" width="170" height="110" as="geometry"/>
                </mxCell>
                <mxCell id="3" value="Cliente: Alejandro" style="rounded=0;whiteSpace=wrap;html=1;gradientColor=none;fillColor=#FFFFFF;" parent="1" vertex="1">
                    <mxGeometry x="100" y="110" width="170" height="20" as="geometry"/>
                </mxCell>
                <mxCell id="19" style="edgeStyle=orthogonalEdgeStyle;rounded=1;orthogonalLoop=1;jettySize=auto;html=1;entryX=0;entryY=0.5;entryDx=0;entryDy=0;" parent="1" source="4" target="6" edge="1">
                    <mxGeometry relative="1" as="geometry">
                        <Array as="points">
                            <mxPoint x="340" y="400"/>
                            <mxPoint x="340" y="175"/>
                        </Array>
                    </mxGeometry>
                </mxCell>
                <mxCell id="4" value="+ Type: Masterd Card&lt;br&gt;&lt;br&gt;- Numero: 9023 6791 5783 6893&lt;br&gt;&lt;br&gt;+ Status: Aprovada" style="rounded=0;whiteSpace=wrap;html=1;align=left;" parent="1" vertex="1">
                    <mxGeometry x="95" y="360" width="180" height="80" as="geometry"/>
                </mxCell>
                <mxCell id="5" value="Transaccion: Tarjeta" style="rounded=0;whiteSpace=wrap;html=1;gradientColor=none;fillColor=#FFFFFF;" parent="1" vertex="1">
                    <mxGeometry x="95" y="340" width="180" height="20" as="geometry"/>
                </mxCell>
                <mxCell id="21" value="" style="edgeStyle=orthogonalEdgeStyle;rounded=1;orthogonalLoop=1;jettySize=auto;html=1;" parent="1" source="6" target="9" edge="1">
                    <mxGeometry relative="1" as="geometry"/>
                </mxCell>
                <mxCell id="6" value="+ Generated date: 02/03/2021&lt;br&gt;&lt;br&gt;+ Satus: dispatched&lt;br&gt;&lt;br&gt;+ Arrival date: 05/03/2021" style="rounded=0;whiteSpace=wrap;html=1;align=left;" parent="1" vertex="1">
                    <mxGeometry x="440" y="130" width="170" height="90" as="geometry"/>
                </mxCell>
                <mxCell id="7" value="Orden: #16" style="rounded=0;whiteSpace=wrap;html=1;gradientColor=none;fillColor=#FFFFFF;" parent="1" vertex="1">
                    <mxGeometry x="440" y="110" width="170" height="20" as="geometry"/>
                </mxCell>
                <mxCell id="22" style="edgeStyle=orthogonalEdgeStyle;rounded=1;orthogonalLoop=1;jettySize=auto;html=1;entryX=0.5;entryY=0;entryDx=0;entryDy=0;" parent="1" source="8" target="11" edge="1">
                    <mxGeometry relative="1" as="geometry"/>
                </mxCell>
                <mxCell id="23" style="edgeStyle=orthogonalEdgeStyle;rounded=1;orthogonalLoop=1;jettySize=auto;html=1;entryX=0.5;entryY=0;entryDx=0;entryDy=0;" parent="1" source="8" target="17" edge="1">
                    <mxGeometry relative="1" as="geometry"/>
                </mxCell>
                <mxCell id="8" value="+ Item 1 No. : #09738902&lt;br&gt;&lt;br&gt;+ Item 2 No. : #97208743" style="rounded=0;whiteSpace=wrap;html=1;align=left;" parent="1" vertex="1">
                    <mxGeometry x="440" y="350" width="170" height="60" as="geometry"/>
                </mxCell>
                <mxCell id="9" value="ShoppingBasket: Items 2" style="rounded=0;whiteSpace=wrap;html=1;gradientColor=none;fillColor=#FFFFFF;" parent="1" vertex="1">
                    <mxGeometry x="440" y="330" width="170" height="20" as="geometry"/>
                </mxCell>
                <mxCell id="14" value="" style="group" parent="1" vertex="1" connectable="0">
                    <mxGeometry x="344" y="470" width="146" height="50" as="geometry"/>
                </mxCell>
                <mxCell id="10" value="+ ID: 9034" style="rounded=0;whiteSpace=wrap;html=1;align=left;" parent="14" vertex="1">
                    <mxGeometry y="20" width="146" height="30" as="geometry"/>
                </mxCell>
                <mxCell id="11" value="Item&amp;nbsp;&lt;span style=&quot;text-align: left&quot;&gt;#09738902&lt;/span&gt;: Laptop" style="rounded=0;whiteSpace=wrap;html=1;gradientColor=none;fillColor=#FFFFFF;" parent="14" vertex="1">
                    <mxGeometry width="146" height="20" as="geometry"/>
                </mxCell>
                <mxCell id="15" value="" style="group" parent="1" vertex="1" connectable="0">
                    <mxGeometry x="570" y="470" width="150" height="50" as="geometry"/>
                </mxCell>
                <mxCell id="16" value="+ ID: 5623" style="rounded=0;whiteSpace=wrap;html=1;align=left;" parent="15" vertex="1">
                    <mxGeometry y="20" width="150" height="30" as="geometry"/>
                </mxCell>
                <mxCell id="17" value="Item&amp;nbsp;&lt;span style=&quot;text-align: left&quot;&gt;#97208743:&amp;nbsp;&lt;/span&gt;T.V." style="rounded=0;whiteSpace=wrap;html=1;gradientColor=none;fillColor=#FFFFFF;" parent="15" vertex="1">
                    <mxGeometry width="150" height="20" as="geometry"/>
                </mxCell>
            </root>
        </mxGraphModel>
    </diagram>
</mxfile>